<svg xmlns="http://www.w3.org/2000/svg" width="177" height="34" viewBox="0 0 177 34" fill="none"><path d="M47.3699 27.1685V33.5634H43.3809V12.754H47.3699V13.748C48.5611 12.9697 49.9489 12.5506 51.3695 12.5403C53.4325 12.5843 55.3962 13.4393 56.8398 14.9221C58.2833 16.4049 59.0917 18.3974 59.0917 20.4725C59.0917 22.5476 58.2833 24.5401 56.8398 26.0229C55.3962 27.5057 53.4325 28.3607 51.3695 28.4047C49.9426 28.4092 48.5479 27.9781 47.3699 27.1685ZM47.3699 18.5754V22.252C47.6842 22.9248 48.1725 23.5002 48.7838 23.918C49.395 24.3359 50.1067 24.5809 50.8444 24.6273C51.5821 24.6737 52.3186 24.5199 52.9769 24.182C53.6352 23.844 54.1911 23.3343 54.5864 22.7063C54.9817 22.0782 55.2018 21.3548 55.2238 20.6119C55.2458 19.8689 55.0688 19.1336 54.7114 18.483C54.3539 17.8324 53.8292 17.2904 53.192 16.9137C52.5548 16.537 51.8287 16.3394 51.0896 16.3416C50.3248 16.3315 49.5722 16.5349 48.9155 16.9292C48.2588 17.3236 47.7237 17.8935 47.3699 18.5754Z" fill="#0E5FD8"></path><path d="M61.3732 8.55022C61.3617 8.24718 61.4115 7.94495 61.5197 7.66188C61.6279 7.37881 61.7922 7.12081 62.0026 6.90356C62.213 6.68631 62.4651 6.51434 62.7436 6.3981C63.0221 6.28186 63.3212 6.22378 63.6228 6.22738C63.9289 6.22216 64.2329 6.27847 64.5171 6.39299C64.8012 6.50752 65.0598 6.67796 65.2776 6.89433C65.4954 7.11069 65.668 7.36861 65.7853 7.65296C65.9027 7.93731 65.9624 8.24236 65.9609 8.55022C65.9544 9.16918 65.705 9.76049 65.2672 10.1955C64.8293 10.6305 64.2383 10.874 63.6228 10.8731C63.3226 10.8717 63.0258 10.8103 62.7495 10.6923C62.4732 10.5743 62.2231 10.4022 62.0137 10.186C61.8043 9.96975 61.6398 9.71374 61.5298 9.43289C61.4199 9.15205 61.3666 8.85199 61.3732 8.55022ZM61.6141 12.747H65.6598V28.1661H61.6141V12.747Z" fill="#0E5FD8"></path><path d="M68.0568 20.4136C68.0496 19.3769 68.2484 18.3492 68.6416 17.3908C69.0347 16.4324 69.6142 15.5626 70.3462 14.8326C71.0781 14.1025 71.9477 13.5268 72.9039 13.1392C73.86 12.7517 74.8836 12.5602 75.9144 12.5758C77.3279 12.574 78.7196 12.9267 79.9636 13.6019V12.754H83.9242V27.2895C83.9242 31.3011 80.4737 33.4885 76.1659 33.4885C73.3318 33.4885 70.6465 32.6442 68.8787 31.2547L70.5296 28.4046C72.2134 29.4784 74.1723 30.0343 76.1659 30.0043C78.9539 30.0043 79.8254 28.8892 79.9459 27.0793C78.745 27.8538 77.3515 28.2724 75.925 28.2871C71.3267 28.2871 68.0568 24.8456 68.0568 20.4136ZM79.9636 22.1344V18.6929C79.6287 17.9762 79.0991 17.3694 78.4359 16.9427C77.7726 16.5159 77.0029 16.2865 76.2155 16.281C75.6715 16.2758 75.132 16.3787 74.6277 16.5838C74.1234 16.789 73.6644 17.0922 73.2769 17.4762C72.8895 17.8602 72.5813 18.3173 72.3701 18.8214C72.1588 19.3255 72.0486 19.8666 72.0458 20.4136C72.0458 22.797 73.8455 24.4537 76.1871 24.4537C76.972 24.4745 77.7461 24.2667 78.4161 23.8552C79.0862 23.4437 79.6236 22.8461 79.9636 22.1344Z" fill="#0E5FD8"></path><path d="M86.3235 20.4137C86.3158 19.3768 86.5142 18.3489 86.9072 17.3903C87.3002 16.4317 87.8797 15.5617 88.6117 14.8315C89.3437 14.1013 90.2135 13.5256 91.1699 13.1383C92.1263 12.7509 93.1501 12.5597 94.181 12.5759C95.5944 12.575 96.9859 12.9276 98.2302 13.6019V12.754H102.187V27.2896C102.187 31.3011 98.7403 33.4743 94.4219 33.4743C91.5878 33.4743 88.9025 32.63 87.1347 31.2406L88.782 28.3904C90.4641 29.4741 92.4244 30.04 94.4219 30.0186C97.2099 30.0186 98.0814 28.9035 98.1983 27.0936C96.9987 27.868 95.6064 28.2866 94.181 28.3014C89.5933 28.2871 86.3235 24.8456 86.3235 20.4137ZM98.2302 22.1345V18.6929C97.895 17.9765 97.3653 17.37 96.7021 16.9433C96.039 16.5165 95.2694 16.287 94.4821 16.281C93.938 16.2754 93.3982 16.378 92.8938 16.5829C92.3893 16.7879 91.9301 17.0911 91.5425 17.4752C91.155 17.8593 90.8468 18.3166 90.6357 18.8209C90.4246 19.3252 90.3148 19.8665 90.3124 20.4137C90.3124 22.7971 92.1121 24.4537 94.4502 24.4537C95.2356 24.4748 96.0102 24.2671 96.6809 23.8556C97.3515 23.4441 97.8896 22.8464 98.2302 22.1345Z" fill="#0E5FD8"></path><path d="M108 12.7537L112.021 23.0354L116.159 12.7537H120.357L111.54 33.563H107.791L110.009 28.0124L103.562 12.7537H108Z" fill="#0E5FD8"></path><path d="M119.604 12.7537H123.891L127.787 23.1566L131.656 12.7537H135.858L129.711 28.1656H125.69L119.604 12.7537Z" fill="#0E5FD8"></path><path d="M136.156 20.3531C136.156 16.0103 139.245 12.4227 144.074 12.4227C145.108 12.4019 146.136 12.5883 147.097 12.9711C148.059 13.3539 148.936 13.9253 149.675 14.6522C150.415 15.3791 151.004 16.2468 151.407 17.2048C151.81 18.1627 152.02 19.1918 152.023 20.232C152.052 20.6139 152.052 20.9973 152.023 21.3792H139.932C140.053 23.5488 142.122 24.9668 144.339 24.9668C146.171 24.9668 147.251 24.4537 148.509 23.3992L150.698 25.722C148.927 27.5924 147.156 28.4653 144.339 28.4653C139.156 28.4653 136.156 24.582 136.156 20.3531ZM140.145 18.5255H147.882C147.492 17.0755 146.111 15.8108 144.013 15.8108C141.587 15.8001 140.566 17.0363 140.145 18.5255Z" fill="#0E5FD8"></path><path d="M152.861 26.5056L154.81 23.2993C156.572 24.477 158.635 25.1156 160.751 25.1376C162.759 25.1376 163.78 24.6246 163.78 23.7517C163.78 23.1781 163.298 22.7542 162.278 22.544L158.08 21.6391C154.99 20.9764 153.58 19.5015 153.58 17.086C153.58 14.5209 155.741 12.3798 160.209 12.3798C162.574 12.3614 164.899 12.9867 166.94 14.1896L165.112 17.2677C163.762 16.5552 161.962 15.7572 160.071 15.7572C158.363 15.7572 157.371 16.1811 157.371 16.9649C157.371 17.4779 157.725 17.8092 158.721 17.9909L162.263 18.6536C166.104 19.4089 167.577 21.1261 167.577 23.4489C167.577 26.7978 164.247 28.547 160.62 28.547C157.895 28.6026 155.209 27.8958 152.861 26.5056Z" fill="#0E5FD8"></path><path d="M168.395 12.7539H170.673V8.50009L174.651 5.90649V12.7539H176.989V16.2524H174.651V28.1658H170.673V16.2524H168.395V12.7539Z" fill="#0E5FD8"></path><path d="M33.3998 15.4831C33.335 14.5007 33.1748 13.527 32.9216 12.576C31.8766 8.45776 29.2982 4.90064 25.7194 2.63981C23.4105 1.13376 20.7594 0.241389 18.0142 0.0462115C16.8603 -0.0369974 15.701 -0.00597217 14.5531 0.13884C13.3452 0.300937 12.1577 0.591126 11.0105 1.00456C7.95491 2.11132 5.28791 4.09257 3.33788 6.70436C1.38784 9.31614 0.239908 12.4444 0.0354262 15.704C0 16.3061 0 16.9082 0 17.5103V32.1171C0 32.495 0.149296 32.8575 0.415044 33.1247C0.680792 33.392 1.04122 33.5421 1.41705 33.5421H7.04273C7.39525 33.5439 7.73576 33.4135 7.99779 33.1763C8.25981 32.9392 8.42453 32.6123 8.45978 32.2596C8.49052 32.1265 8.5048 31.9901 8.50229 31.8534V31.4972C8.49875 31.4712 8.49875 31.4448 8.50229 31.4188V31.3974C8.54066 31.4068 8.57678 31.4237 8.60857 31.4473C10.7084 32.6164 13.0347 33.3152 15.4281 33.4958C16.3925 33.5761 17.362 33.5737 18.326 33.4887C19.195 33.4085 20.0563 33.2584 20.9015 33.0398C24.461 32.1297 27.6181 30.054 29.8749 27.1401C31.8619 24.6303 33.0771 21.5918 33.3715 18.3974C33.4695 17.4289 33.479 16.4534 33.3998 15.4831ZM19.7005 24.8279C19.6921 24.8782 19.666 24.9238 19.627 24.9565C19.588 24.9892 19.5387 25.0068 19.488 25.006H13.9615C13.9111 25.0054 13.8625 24.9873 13.8238 24.9549C13.7851 24.9224 13.7587 24.8776 13.7489 24.8279V24.7923V24.5821C13.7426 24.3286 13.7652 24.0752 13.8162 23.8268C13.8517 23.7413 13.8729 23.638 13.9083 23.5454C13.9438 23.4527 13.9792 23.3672 14.0146 23.2746C14.05 23.182 14.1067 23.1036 14.1599 23.0252L14.2378 22.9005C14.2905 22.8216 14.3472 22.7455 14.4078 22.6725C14.4716 22.5941 14.5354 22.5229 14.5991 22.4516C14.9329 22.1245 15.3381 21.8805 15.7824 21.7391C15.3989 21.53 15.0957 21.1984 14.9205 20.7966C14.7454 20.3949 14.7083 19.9459 14.8151 19.5206C14.922 19.0954 15.1667 18.718 15.5105 18.4481C15.8544 18.1782 16.2779 18.0313 16.7141 18.0304C17.2342 18.033 17.7326 18.2401 18.1028 18.6075C18.3188 18.8235 18.4817 19.0872 18.5787 19.3776C18.6756 19.668 18.7039 19.9771 18.6612 20.2804C18.6186 20.5837 18.5062 20.8728 18.333 21.1248C18.1598 21.3768 17.9306 21.5847 17.6635 21.732C18.2603 21.9293 18.7799 22.3111 19.1482 22.8229C19.5165 23.3347 19.7148 23.9503 19.7147 24.5821C19.7147 24.664 19.7076 24.7495 19.7005 24.8279ZM29.2656 12.6829H4.19446C4.14775 12.6824 4.10181 12.6709 4.06036 12.6492C4.0189 12.6275 3.9831 12.5964 3.95585 12.5582C3.9286 12.52 3.91067 12.476 3.9035 12.4296C3.89633 12.3831 3.90014 12.3357 3.9146 12.291C4.84898 9.62477 6.58296 7.31579 8.87739 5.6825C11.1718 4.04921 13.9136 3.17208 16.7247 3.17208C19.5358 3.17208 22.2776 4.04921 24.572 5.6825C26.8665 7.31579 28.6004 9.62477 29.5348 12.291C29.5501 12.3357 29.5545 12.3834 29.5477 12.4301C29.5409 12.4769 29.523 12.5213 29.4956 12.5597C29.4682 12.5981 29.4321 12.6293 29.3902 12.6507C29.3483 12.6721 29.302 12.6832 29.255 12.6829H29.2656Z" fill="#0E5FD8"></path></svg>